<svg id="グループ_1" data-name="グループ 1" xmlns="http://www.w3.org/2000/svg" width="800" height="800" viewBox="0 0 800 800">
  <defs>
    <style>
      .cls-1 {
        fill: #fff;
        fill-rule: evenodd;
      }
    </style>
  </defs>
  <path id="TATTOO" class="cls-1" d="M248.9,337.321h-90v17.432h34.392V451.38H214.51V354.753H248.9V337.321Zm38.965,70.991,13.8-37.783q1.024-2.6,2.13-6.113t2.13-7.533q1.1,4.023,2.209,7.493t2.129,6l13.883,37.941H287.867Zm28.948-70.991H295.2L250.32,451.38h16.565a6.829,6.829,0,0,0,4.5-1.5,7.572,7.572,0,0,0,2.445-3.313l8.519-23.27h47.249l8.519,23.27a8.574,8.574,0,0,0,2.6,3.431,7,7,0,0,0,4.5,1.38h16.407Zm136.3,0h-90v17.432h34.391V451.38h21.219V354.753h34.391V337.321Zm94.654,0h-90v17.432h34.392V451.38h21.218V354.753h34.392V337.321Zm121.906,41.1a57.415,57.415,0,0,0-5.4-14.041,54.183,54.183,0,0,0-8.637-11.713,51.944,51.944,0,0,0-11.477-8.914,57.349,57.349,0,0,0-14.041-5.679,64.007,64.007,0,0,0-16.328-2.011,61.478,61.478,0,0,0-23.585,4.377,53.64,53.64,0,0,0-18.26,12.187,54.72,54.72,0,0,0-11.793,18.5,66.639,66.639,0,0,0,0,46.46,54.705,54.705,0,0,0,11.793,18.5,53.623,53.623,0,0,0,18.26,12.186,65.93,65.93,0,0,0,47.249,0,53.21,53.21,0,0,0,18.221-12.186,54.517,54.517,0,0,0,11.714-18.5,63.746,63.746,0,0,0,4.141-23.23A66.84,66.84,0,0,0,669.677,378.417Zm-22.362,32.774a35.686,35.686,0,0,1-7.178,12.621,30.941,30.941,0,0,1-11.319,7.927,42.271,42.271,0,0,1-30.053,0,31.292,31.292,0,0,1-11.359-7.927,35.335,35.335,0,0,1-7.217-12.621,57.443,57.443,0,0,1,0-33.681,35.738,35.738,0,0,1,7.217-12.66,31.09,31.09,0,0,1,11.359-7.967,42.271,42.271,0,0,1,30.053,0,30.743,30.743,0,0,1,11.319,7.967,36.1,36.1,0,0,1,7.178,12.66A57.443,57.443,0,0,1,647.315,411.191Zm149.831-32.774a57.455,57.455,0,0,0-5.4-14.041,54.183,54.183,0,0,0-8.637-11.713,51.944,51.944,0,0,0-11.477-8.914,57.365,57.365,0,0,0-14.041-5.679,64.013,64.013,0,0,0-16.328-2.011,61.478,61.478,0,0,0-23.585,4.377,53.64,53.64,0,0,0-18.26,12.187,54.7,54.7,0,0,0-11.793,18.5,66.639,66.639,0,0,0,0,46.46,54.69,54.69,0,0,0,11.793,18.5,53.623,53.623,0,0,0,18.26,12.186,65.93,65.93,0,0,0,47.249,0,53.21,53.21,0,0,0,18.221-12.186,54.517,54.517,0,0,0,11.714-18.5A63.746,63.746,0,0,0,799,394.35,66.84,66.84,0,0,0,797.146,378.417Zm-22.362,32.774a35.7,35.7,0,0,1-7.178,12.621,30.941,30.941,0,0,1-11.319,7.927,42.271,42.271,0,0,1-30.053,0,31.283,31.283,0,0,1-11.359-7.927,35.335,35.335,0,0,1-7.217-12.621,57.443,57.443,0,0,1,0-33.681,35.738,35.738,0,0,1,7.217-12.66,31.081,31.081,0,0,1,11.359-7.967,42.271,42.271,0,0,1,30.053,0,30.743,30.743,0,0,1,11.319,7.967,36.112,36.112,0,0,1,7.178,12.66A57.443,57.443,0,0,1,774.784,411.191Z"/>
  <path id="STUDIO" class="cls-1" d="M290.973,521.082a42.021,42.021,0,0,0-14.514-8.835,53.235,53.235,0,0,0-18.615-3.155,42.882,42.882,0,0,0-15.934,2.761,35.361,35.361,0,0,0-11.674,7.336,31.565,31.565,0,0,0-9.7,22.638,33.809,33.809,0,0,0,2.248,13.133,26.189,26.189,0,0,0,5.955,8.874,31.128,31.128,0,0,0,8.441,5.758,82.871,82.871,0,0,0,9.623,3.787q4.89,1.578,9.623,2.918a44.575,44.575,0,0,1,8.44,3.274,18.169,18.169,0,0,1,5.956,4.772,11.466,11.466,0,0,1,2.248,7.336q0,8.045-4.97,12.344t-14.04,4.3a28.333,28.333,0,0,1-10.136-1.617,42.71,42.71,0,0,1-7.376-3.589q-3.154-1.971-5.442-3.589a7.538,7.538,0,0,0-4.26-1.617,5.166,5.166,0,0,0-2.682.75,6.647,6.647,0,0,0-2.05,1.853l-6.232,10.176a43.945,43.945,0,0,0,7.572,6.152,54.161,54.161,0,0,0,9.111,4.733,56.43,56.43,0,0,0,10.136,3.037,54.167,54.167,0,0,0,10.728,1.065,45.748,45.748,0,0,0,16.8-2.879,36.388,36.388,0,0,0,12.423-7.888,33.41,33.41,0,0,0,7.731-11.753,39.331,39.331,0,0,0,2.642-14.475,29.168,29.168,0,0,0-2.248-12.068,25.757,25.757,0,0,0-5.955-8.4,33.509,33.509,0,0,0-8.44-5.679,91.487,91.487,0,0,0-9.7-3.944q-4.969-1.7-9.7-3.2a55.143,55.143,0,0,1-8.44-3.392,18.74,18.74,0,0,1-5.955-4.575,10.076,10.076,0,0,1-2.248-6.7,14.879,14.879,0,0,1,1.1-5.8,11.83,11.83,0,0,1,3.352-4.536,16.246,16.246,0,0,1,5.561-2.958,25.343,25.343,0,0,1,7.731-1.064,26.391,26.391,0,0,1,8.479,1.222,38.119,38.119,0,0,1,6.271,2.722q2.68,1.5,4.614,2.721a6.806,6.806,0,0,0,3.589,1.223,4.47,4.47,0,0,0,2.643-.75,7.31,7.31,0,0,0,2.011-2.406Zm100.176-10.728h-90v17.432h34.392v96.628h21.218V527.786h34.392V510.354Zm49.89,94.892a22.69,22.69,0,0,1-8.2-5.8,25.524,25.524,0,0,1-5.127-9.031,37.032,37.032,0,0,1-1.775-11.832V510.354H404.715v68.31a52.646,52.646,0,0,0,3.273,18.812,41.784,41.784,0,0,0,24.256,24.69,57.37,57.37,0,0,0,39.518,0,41.784,41.784,0,0,0,24.256-24.69,52.69,52.69,0,0,0,3.273-18.812v-68.31H478.072v68.31A37.033,37.033,0,0,1,476.3,590.5a25.459,25.459,0,0,1-5.088,8.992,22.547,22.547,0,0,1-8.164,5.758A30.542,30.542,0,0,1,441.039,605.246ZM620.37,544.351a52.525,52.525,0,0,0-11.753-18.024A53.378,53.378,0,0,0,590.4,514.574a63.754,63.754,0,0,0-23.664-4.22H523.269v114.06h43.463a64.241,64.241,0,0,0,23.664-4.181,51.716,51.716,0,0,0,29.974-29.816A65.549,65.549,0,0,0,620.37,544.351Zm-20.075,39.874a34.908,34.908,0,0,1-7.178,12.62,31.311,31.311,0,0,1-11.359,7.928,38.939,38.939,0,0,1-15.026,2.76H544.567v-80.3h22.165A38.958,38.958,0,0,1,581.758,530a31.345,31.345,0,0,1,11.359,7.927,34.929,34.929,0,0,1,7.178,12.621A58.309,58.309,0,0,1,600.295,584.225Zm64.247-73.871h-21.3v114.06h21.3V510.354Zm132.4,41.1a57.432,57.432,0,0,0-5.4-14.04A54.226,54.226,0,0,0,782.9,525.7a51.894,51.894,0,0,0-11.477-8.913,57.3,57.3,0,0,0-14.04-5.68,64.013,64.013,0,0,0-16.328-2.011,61.456,61.456,0,0,0-23.585,4.378,53.64,53.64,0,0,0-18.261,12.187,54.718,54.718,0,0,0-11.792,18.5,66.624,66.624,0,0,0,0,46.46,54.708,54.708,0,0,0,11.792,18.5A53.654,53.654,0,0,0,717.469,621.3a65.93,65.93,0,0,0,47.249,0,53.227,53.227,0,0,0,18.221-12.187,54.52,54.52,0,0,0,11.713-18.5,63.75,63.75,0,0,0,4.142-23.23A66.848,66.848,0,0,0,796.94,551.45Zm-22.362,32.775a35.7,35.7,0,0,1-7.178,12.62,30.947,30.947,0,0,1-11.32,7.928,42.285,42.285,0,0,1-30.053,0,31.291,31.291,0,0,1-11.358-7.928,35.332,35.332,0,0,1-7.218-12.62,57.446,57.446,0,0,1,0-33.682,35.757,35.757,0,0,1,7.218-12.66,31.086,31.086,0,0,1,11.358-7.967,42.271,42.271,0,0,1,30.053,0,30.747,30.747,0,0,1,11.32,7.967,36.13,36.13,0,0,1,7.178,12.66A57.446,57.446,0,0,1,774.578,584.225Z"/>
  <path id="SERENDIP" class="cls-1" d="M126.433,694.616a42.034,42.034,0,0,0-14.514-8.834A53.216,53.216,0,0,0,93.3,682.627a42.881,42.881,0,0,0-15.934,2.76A35.4,35.4,0,0,0,65.7,692.723a31.561,31.561,0,0,0-9.7,22.639A33.818,33.818,0,0,0,58.242,728.5a26.18,26.18,0,0,0,5.955,8.874,31.144,31.144,0,0,0,8.44,5.758,82.69,82.69,0,0,0,9.623,3.786q4.89,1.58,9.623,2.919a44.578,44.578,0,0,1,8.44,3.273,18.157,18.157,0,0,1,5.955,4.773,11.459,11.459,0,0,1,2.248,7.335q0,8.046-4.969,12.345t-14.041,4.3a28.358,28.358,0,0,1-10.136-1.617,42.7,42.7,0,0,1-7.375-3.589q-3.156-1.971-5.443-3.589a7.537,7.537,0,0,0-4.259-1.617,5.171,5.171,0,0,0-2.682.749,6.657,6.657,0,0,0-2.051,1.854L51.34,784.223a43.868,43.868,0,0,0,7.572,6.153,54.219,54.219,0,0,0,9.111,4.733,56.357,56.357,0,0,0,10.136,3.036,54.164,54.164,0,0,0,10.728,1.065,45.749,45.749,0,0,0,16.8-2.879,36.388,36.388,0,0,0,12.423-7.888,33.41,33.41,0,0,0,7.731-11.753,39.33,39.33,0,0,0,2.642-14.474,29.17,29.17,0,0,0-2.248-12.069,25.742,25.742,0,0,0-5.955-8.4,33.5,33.5,0,0,0-8.441-5.68,91.809,91.809,0,0,0-9.7-3.944q-4.969-1.695-9.7-3.194A55.14,55.14,0,0,1,84,725.537a18.76,18.76,0,0,1-5.955-4.575,10.08,10.08,0,0,1-2.248-6.705,14.877,14.877,0,0,1,1.1-5.8,11.816,11.816,0,0,1,3.352-4.536,16.237,16.237,0,0,1,5.561-2.958,25.305,25.305,0,0,1,7.73-1.065,26.364,26.364,0,0,1,8.48,1.223,38.243,38.243,0,0,1,6.271,2.721q2.681,1.5,4.614,2.722a6.813,6.813,0,0,0,3.589,1.222,4.476,4.476,0,0,0,2.643-.749,7.321,7.321,0,0,0,2.011-2.406Zm92.446,6.153v-16.88H146.941V797.948h71.938V780.989H168.238V748.728h39.913V732.4H168.238V700.769h50.641Zm39.991,37.389V700.3h13.567q11.752,0,17.472,4.653t5.719,13.331a21.688,21.688,0,0,1-1.42,7.967,16.637,16.637,0,0,1-4.3,6.271,20.2,20.2,0,0,1-7.336,4.141,32.819,32.819,0,0,1-10.451,1.5H258.87Zm39.282,17.669A19.965,19.965,0,0,0,295,752a20.846,20.846,0,0,0-3.787-2.8,39.558,39.558,0,0,0,10.689-4.97,32.931,32.931,0,0,0,7.888-7.335,31.517,31.517,0,0,0,4.89-9.308,36.044,36.044,0,0,0-.828-24.177A26.386,26.386,0,0,0,306,693.039a38.1,38.1,0,0,0-13.646-6.744,72.315,72.315,0,0,0-19.917-2.406H237.651V797.948H258.87V753.381h9.071a10.369,10.369,0,0,1,4.772.868,8.44,8.44,0,0,1,2.958,2.919l23.98,36.521q2.443,4.259,7.887,4.259h19.168Zm112.875-55.058v-16.88H339.089V797.948h71.938V780.989H360.386V748.728H400.3V732.4H360.386V700.769h50.641Zm96.232-16.88v69.335q0,2.288.158,4.969t0.394,5.443l-59.79-76.356a16.741,16.741,0,0,0-1.578-1.774,5.729,5.729,0,0,0-1.459-1.026,5.631,5.631,0,0,0-1.736-.473,19.825,19.825,0,0,0-2.327-.118H429.8V797.948h18.7V727.9q0-4.416-.473-9.623l59.554,76.04a9.852,9.852,0,0,0,3.273,2.8,9.579,9.579,0,0,0,4.22.828h10.885V683.889H507.259Zm141.193,34A52.516,52.516,0,0,0,636.7,699.862a53.368,53.368,0,0,0-18.221-11.753,63.726,63.726,0,0,0-23.664-4.22H551.351V797.948h43.463a64.234,64.234,0,0,0,23.664-4.18,51.714,51.714,0,0,0,29.974-29.817A65.532,65.532,0,0,0,648.452,717.886Zm-20.075,39.873A34.9,34.9,0,0,1,621.2,770.38a31.3,31.3,0,0,1-11.359,7.927,38.92,38.92,0,0,1-15.026,2.761H572.649v-80.3h22.165a38.958,38.958,0,0,1,15.026,2.761,31.325,31.325,0,0,1,11.359,7.927,34.907,34.907,0,0,1,7.178,12.621A58.305,58.305,0,0,1,628.377,757.759Zm64.247-73.87h-21.3V797.948h21.3V683.889Zm46.7,57.345V700.3h15.854a34.007,34.007,0,0,1,10.255,1.38,18.971,18.971,0,0,1,7.178,3.983,16.378,16.378,0,0,1,4.259,6.311,22.994,22.994,0,0,1,1.42,8.282,25.348,25.348,0,0,1-1.42,8.716,16.925,16.925,0,0,1-4.3,6.626,19.3,19.3,0,0,1-7.217,4.181,31.971,31.971,0,0,1-10.176,1.459H739.32ZM718.1,683.889V797.948H739.32V757.8h15.854a61.822,61.822,0,0,0,19.444-2.761,38.507,38.507,0,0,0,13.844-7.73,31.522,31.522,0,0,0,8.282-11.872,40.536,40.536,0,0,0,2.761-15.184,39.682,39.682,0,0,0-2.643-14.671,29.723,29.723,0,0,0-8.085-11.517,38.126,38.126,0,0,0-13.8-7.493,65.093,65.093,0,0,0-19.8-2.682H718.1Z"/>
</svg>
